HIERARCHY
ROOT Hips
{
	OFFSET	0.00	0.00	0.00
	CHANNELS 6 Xposition Yposition Zposition Zrotation Xrotation Yrotation
	JOINT LeftUpLeg
	{
		OFFSET	 0.126116	-0.014019	-0.065224
		CHANNELS 3 Zrotation Xrotation Yrotation
		JOINT LeftLeg
		{
			OFFSET	 0.000000	 0.000000	 0.569914
			CHANNELS 3 Zrotation Xrotation Yrotation
			JOINT LeftFoot
			{
				OFFSET	 0.000000	 0.000000	 0.544423
				CHANNELS 3 Zrotation Xrotation Yrotation
				JOINT LeftToeBase
				{
					OFFSET	 0.000000	 0.000000	 0.207117
					CHANNELS 3 Zrotation Xrotation Yrotation
					End Site
					{
						OFFSET	 0.000000	 0.000000	 0.207117
					}
				}
			}
		}
	}
	JOINT RightUpLeg
	{
		OFFSET	-0.124023	-0.008373	-0.065224
		CHANNELS 3 Zrotation Xrotation Yrotation
		JOINT RightLeg
		{
			OFFSET	 0.000000	 0.000000	 0.570047
			CHANNELS 3 Zrotation Xrotation Yrotation
			JOINT RightFoot
			{
				OFFSET	 0.000000	 0.000000	 0.544354
				CHANNELS 3 Zrotation Xrotation Yrotation
				JOINT RightToeBase
				{
					OFFSET	 0.000000	 0.000000	 0.207540
					CHANNELS 3 Zrotation Xrotation Yrotation
					End Site
					{
						OFFSET	 0.000000	 0.000000	 0.207540
					}
				}
			}
		}
	}
	JOINT Spine
	{
		OFFSET	 0.000184	-0.007763	 0.117403
		CHANNELS 3 Zrotation Xrotation Yrotation
		JOINT Spine1
		{
			OFFSET	 0.000000	 0.000000	 0.137269
			CHANNELS 3 Zrotation Xrotation Yrotation
			JOINT Spine2
			{
				OFFSET	 0.000000	 0.000000	 0.156879
				CHANNELS 3 Zrotation Xrotation Yrotation
				JOINT LeftShoulder
				{
					OFFSET	 0.080501	-0.002496	 0.160144
					CHANNELS 3 Zrotation Xrotation Yrotation
					JOINT LeftArm
					{
						OFFSET	 0.000000	 0.000000	 0.164363
						CHANNELS 3 Zrotation Xrotation Yrotation
						JOINT LeftForeArm
						{
							OFFSET	 0.000000	 0.000000	 0.364576
							CHANNELS 3 Zrotation Xrotation Yrotation
							JOINT LeftHand
							{
								OFFSET	 0.000000	 0.000000	 0.360812
								CHANNELS 3 Zrotation Xrotation Yrotation
								JOINT LeftHandIndex1
								{
									OFFSET	 0.000000	 0.000000	 0.086006
									CHANNELS 3 Zrotation Xrotation Yrotation
									JOINT LeftHandIndex2
									{
										OFFSET	 0.000000	 0.000000	 0.047236
										CHANNELS 3 Zrotation Xrotation Yrotation
										JOINT LeftHandIndex3
										{
											OFFSET	-0.004284	-0.000551	 0.038166
											CHANNELS 3 Zrotation Xrotation Yrotation
											End Site
											{
												OFFSET	-0.004284	-0.000551	 0.038166
											}
										}
									}
								}
							}
						}
					}
				}
				JOINT Neck
				{
					OFFSET	 0.000000	 0.000000	 0.176489
					CHANNELS 3 Zrotation Xrotation Yrotation
					JOINT Head
					{
						OFFSET	 0.000000	-0.001747	 0.077940
						CHANNELS 3 Zrotation Xrotation Yrotation
						End Site
						{
							OFFSET	 0.000000	-0.001747	 0.077940
						}
					}
				}
				JOINT RightShoulder
				{
					OFFSET	-0.080363	 0.000306	 0.159706
					CHANNELS 3 Zrotation Xrotation Yrotation
					JOINT RightArm
					{
						OFFSET	 0.000000	 0.000000	 0.164196
						CHANNELS 3 Zrotation Xrotation Yrotation
						JOINT RightForeArm
						{
							OFFSET	 0.000000	 0.000000	 0.365611
							CHANNELS 3 Zrotation Xrotation Yrotation
							JOINT RightHand
							{
								OFFSET	 0.000000	 0.000000	 0.360648
								CHANNELS 3 Zrotation Xrotation Yrotation
								JOINT RightHandIndex1
								{
									OFFSET	 0.000000	 0.000000	 0.069977
									CHANNELS 3 Zrotation Xrotation Yrotation
									JOINT RightHandIndex2
									{
										OFFSET	 0.000000	 0.000000	 0.052305
										CHANNELS 3 Zrotation Xrotation Yrotation
										JOINT RightHandIndex3
										{
											OFFSET	 0.009002	-0.000782	 0.042196
											CHANNELS 3 Zrotation Xrotation Yrotation
											End Site
											{
												OFFSET	 0.009002	-0.000782	 0.042196
											}
										}
									}
								}
							}
						}
					}
				}
			}
		}
	}
}
MOTION
Frames:    5
Frame Time: 0.03333334
-0.056556	-2.230842	 1.153944	 4.489017	-1.595036	-3.393973	 0.731879	-18.778420	-170.650300	 0.678013	-51.656140	 0.218678	 92.847500	 82.605140	-97.034570	-2.370679	 31.400350	-0.065074	-2.129933	-34.101620	-174.522500	 14.249500	-62.693920	 13.398970	 25.680140	 78.349810	-21.952220	 2.358244	 33.106190	 0.105694	-0.744119	 8.944068	 1.303582	 0.539321	 2.392964	 1.798327	-4.935443	-2.263457	-2.260009	-93.838720	 58.921410	 175.606000	 21.435540	 41.321530	-31.602620	-0.742388	-0.710096	-6.111897	 1.065525	-3.551347	-6.490711	-4.869295	 19.243610	-2.786478	-3.887968	 21.390330	 2.209300	-4.808248	 5.545567	 0.146966	-0.105203	-5.040143	 0.169199	-7.018616	 2.289097	 2.453390	 89.810260	 61.609700	-179.933000	-20.204360	 52.144770	 10.280520	-1.401389	-2.624014	 13.555090	-4.945589	 10.794790	 0.696037	 6.299879	 25.513970	-0.561639	 1.796452	 45.410420	-6.913580	 0.427868	 24.706210	 3.618451
-0.057217	-2.245445	 1.153881	 5.465050	-0.976706	-3.390921	-0.258642	-18.740570	-170.759700	 1.326769	-51.497170	 0.762299	 92.684140	 82.651450	-97.292250	-2.368973	 31.685850	-0.071529	-4.457708	-35.944060	-174.540200	 15.224410	-61.007180	 14.064210	 65.140750	 83.204860	-62.829400	 2.358958	 33.001640	 0.103260	-1.428802	 8.588474	 1.137252	 0.552763	 1.942372	 1.972916	-5.087568	-2.231491	-2.289551	-94.040530	 59.017680	 175.163300	 21.792150	 40.242620	-32.008200	-1.503222	-0.723575	-7.037041	 1.716618	-3.872881	-7.818108	-4.866380	 19.321190	-2.792103	-3.878468	 21.511900	 2.199645	-4.806244	 5.569324	 0.145576	-0.052731	-5.094923	 0.211579	-6.990680	 2.241605	 2.258147	 89.741240	 61.695440	 179.902400	-19.602090	 52.659420	 9.157117	-1.852419	-2.677016	 13.269010	-5.072499	 11.412600	 0.438006	 6.284005	 24.098700	-0.543950	 1.979302	 43.931000	-7.076550	 0.688174	 23.561430	 3.487035
-0.057700	-2.265750	 1.153391	 6.245787	-0.099659	-3.572894	-0.966987	-18.549790	-170.710900	 1.732333	-51.178590	 1.074946	 94.992140	 82.743100	-99.827550	-2.366887	 32.026210	-0.079275	-6.360982	-38.453570	-174.450700	 16.119350	-58.508370	 14.504730	 114.520100	 80.914350	-114.165800	 2.360099	 32.833100	 0.099351	-1.890308	 7.944968	 1.062693	 0.562950	 1.688198	 2.238694	-5.243403	-2.275460	-2.381619	-94.270580	 58.987790	 174.677000	 21.669920	 38.829060	-31.933820	-2.087722	-0.848054	-9.139091	 2.207805	-4.477605	-8.099054	-4.854810	 19.609110	-2.809577	-3.861523	 21.727900	 2.182428	-4.797336	 5.674234	 0.139429	-0.014519	-5.146560	 0.281743	-7.014386	 2.199433	 2.157047	 89.627930	 61.833720	 179.629800	-18.878080	 53.278500	 7.771918	-2.812368	-2.855536	 13.014920	-5.478436	 12.116630	-0.183635	 6.255037	 22.209090	-0.586790	 2.172616	 42.269750	-7.247272	 1.089456	 21.751020	 3.292977
-0.057894	-2.288293	 1.152299	 6.558696	 0.518084	-3.922460	-1.194468	-17.815670	-170.497900	 1.949783	-50.715350	 1.236273	 99.016500	 82.756680	-103.990900	-2.362815	 32.663690	-0.093885	-6.265197	-40.555730	-173.936500	 15.921910	-55.758530	 13.952650	 128.183000	 76.086400	-129.339300	 2.358259	 33.103500	 0.105636	-2.089725	 7.346832	 1.228421	 0.601923	 1.950428	 2.389401	-5.325430	-2.437754	-2.445421	-94.423690	 58.911590	 174.362800	 21.030540	 37.406490	-31.888530	-2.873945	-0.893120	-11.275110	 2.013613	-4.980695	-7.549913	-4.837313	 19.989760	-2.821440	-3.839267	 22.009700	 2.159816	-4.782048	 5.853974	 0.128859	 0.006822	-5.224219	 0.329298	-7.039138	 2.148569	 2.115859	 89.506550	 61.973000	 179.335300	-18.017960	 53.855640	 6.333811	-4.073264	-3.139240	 12.922690	-5.868869	 12.715660	-1.324381	 6.219675	 20.255200	-0.659280	 2.376585	 40.399540	-7.425473	 1.514484	 19.774020	 3.099212
-0.058430	-2.314742	 1.150365	 6.730763	 0.776335	-4.228115	-1.395308	-16.451740	-170.369900	 2.123702	-50.204090	 1.360876	 99.685870	 82.834640	-104.740400	-2.353005	 34.072650	-0.126770	-4.856089	-42.085120	-173.018800	 15.100160	-52.518590	 12.703370	 135.282500	 70.276280	-137.350100	 2.347264	 34.614350	 0.141266	-2.361294	 7.018314	 1.414044	 0.649730	 2.461214	 2.481202	-5.345530	-2.698284	-2.486888	-94.505380	 58.869950	 174.195800	 19.785620	 36.091950	-32.015880	-3.347989	-0.924669	-13.006710	 1.653175	-5.334547	-7.266530	-4.828559	 20.328520	-2.871567	-3.812399	 22.347130	 2.132526	-4.759037	 6.123661	 0.112893	 0.046754	-5.316833	 0.348233	-6.998952	 2.103881	 1.990960	 89.413750	 62.025290	 179.109600	-16.896240	 54.378080	 4.448797	-5.384173	-3.515672	 13.125090	-5.997567	 12.952580	-2.733312	 6.183418	 18.166590	-0.714059	 2.645043	 37.737610	-7.656581	 1.957020	 17.652350	 2.911011
